<?xml version="1.0" encoding="UTF-8" standalone="no"?>
<!DOCTYPE svg PUBLIC "-//W3C//DTD SVG 1.0//EN" "http://www.w3.org/TR/2001/REC-SVG-20010904/DTD/svg10.dtd">
<!-- Fixed up by svgfix.xsl 1.1  -->
<svg xmlns="http://www.w3.org/2000/svg" xmlns:xlink="http://www.w3.org/1999/xlink" xmlns:ev="http://www.w3.org/2001/xml-events" width="364" height="301" viewBox="0 620 208 172">
<!-- Generated by pstoedit version:3.44 from //venus/sdt/docs_build/temp_build_RVDK2212.2.1/DUI0281_rvdk22_user_guide/graphics/StackDiag.EPS -->
<g xml:space="preserve">
<g style="stroke:none;fill:#000000;text-rendering:optimizeGeometricPrecision;font-size:8px;font-family:Arial,Helvetica,sans-serif">
	<text transform="matrix(1 0 0 1 167.243 714.124)">Heap base</text>
</g>
<g style="stroke:none;fill:#000000;text-rendering:optimizeGeometricPrecision;font-size:8px;font-family:'Lucida Sans Typewriter','Lucida Console','Courier New',Courier,monospace">
	<text transform="matrix(1 0 0 1 1.34326 641.07)">top_of_memory</text>
</g>
<g stroke="#000000" fill="none" stroke-width="0.4px" stroke-linejoin="miter" stroke-linecap="butt" stroke-miterlimit="3.86369">
	<path d="  M 89.3984 640.968   L 148.172 640.968   L 148.172 773.017   L 89.3984 773.017   Z   "/>
</g>
<g stroke="#000000" fill="none" stroke-width="0.4px" stroke-linejoin="miter" stroke-linecap="butt" stroke-miterlimit="3.86369">
	<path d="  M 88.8984 715.345   L 147.858 715.345   "/>
</g>
<g stroke="#000000" fill="none" stroke-width="0.4px" stroke-linejoin="miter" stroke-linecap="butt" stroke-miterlimit="3.86369">
	<path d="  M 89.3984 727.521   L 148.358 727.521   "/>
</g>
<g style="stroke:none;fill:#000000;text-rendering:optimizeGeometricPrecision;font-size:8px;font-family:Arial,Helvetica,sans-serif">
	<text transform="matrix(1 0 0 1 103.524 757.333)">Program</text>
</g>
<g style="stroke:none;fill:#000000;text-rendering:optimizeGeometricPrecision;font-size:8px;font-family:Arial,Helvetica,sans-serif">
	<text transform="matrix(1 0 0 1 101.273 765.333)">(RO+R</text>
</g>
<g style="stroke:none;fill:#000000;text-rendering:optimizeGeometricPrecision;font-size:8px;font-family:Arial,Helvetica,sans-serif">
	<text transform="matrix(1 0 0 1 126.257 765.333)">W)</text>
</g>
<g style="stroke:none;fill:#000000;text-rendering:optimizeGeometricPrecision;font-size:8px;font-family:Arial,Helvetica,sans-serif">
	<text transform="matrix(1 0 0 1 109.065 652.426)">S</text>
</g>
<g style="stroke:none;fill:#000000;text-rendering:optimizeGeometricPrecision;font-size:8px;font-family:Arial,Helvetica,sans-serif">
	<text transform="matrix(1 0 0 1 114.057 652.426)">t</text>
</g>
<g style="stroke:none;fill:#000000;text-rendering:optimizeGeometricPrecision;font-size:8px;font-family:Arial,Helvetica,sans-serif">
	<text transform="matrix(1 0 0 1 116.185 652.426)">ack</text>
</g>
<g style="stroke:none;fill:#000000;text-rendering:optimizeGeometricPrecision;font-size:8px;font-family:Arial,Helvetica,sans-serif">
	<text transform="matrix(1 0 0 1 108.788 706.388)">Heap</text>
</g>
<g style="stroke:none;fill:#000000;text-rendering:optimizeGeometricPrecision;font-size:8px;font-family:Arial,Helvetica,sans-serif">
	<text transform="matrix(1 0 0 1 106.454 724.315)">ZI dat</text>
</g>
<g style="stroke:none;fill:#000000;text-rendering:optimizeGeometricPrecision;font-size:8px;font-family:Arial,Helvetica,sans-serif">
	<text transform="matrix(1 0 0 1 126.814 724.315)">a</text>
</g>
<g style="stroke:none;fill:#000000;text-rendering:optimizeGeometricPrecision;font-size:8px;font-family:Arial,Helvetica,sans-serif">
	<text transform="matrix(1 0 0 1 103.404 738.457)">R</text>
</g>
<g style="stroke:none;fill:#000000;text-rendering:optimizeGeometricPrecision;font-size:8px;font-family:Arial,Helvetica,sans-serif">
	<text transform="matrix(1 0 0 1 109.052 738.457)">W dat</text>
</g>
<g style="stroke:none;fill:#000000;text-rendering:optimizeGeometricPrecision;font-size:8px;font-family:Arial,Helvetica,sans-serif">
	<text transform="matrix(1 0 0 1 129.852 738.457)">a</text>
</g>
<g stroke="#000000" fill="none" stroke-width="0.2px" stroke-linejoin="miter" stroke-linecap="butt" stroke-miterlimit="3.86369">
	<path d="  M 135.017 711.845   L 135.017 699.574   "/>
</g>
<g fill="#000000" fill-rule="evenodd" stroke-width="0.2px" stroke-linejoin="miter" stroke-linecap="butt" stroke-miterlimit="3.86369">
	<path d="  M 135.017 699.803   L 133.642 699.803   L 135.017 696.366   L 136.392 699.803   Z   "/>
</g>
<g stroke="#000000" fill="none" stroke-width="0.2px" stroke-linejoin="miter" stroke-linecap="butt" stroke-miterlimit="3.86369">
	<path d="  M 135.017 641.491   L 135.017 652.962   "/>
</g>
<g fill="#000000" fill-rule="evenodd" stroke-width="0.2px" stroke-linejoin="miter" stroke-linecap="butt" stroke-miterlimit="3.86369">
	<path d="  M 135.017 652.733   L 136.392 652.733   L 135.017 656.17   L 133.642 652.733   Z   "/>
</g>
<g stroke="#000000" fill="none" stroke-width="0.4px" stroke-linejoin="miter" stroke-linecap="butt" stroke-miterlimit="3.86369" stroke-dasharray="72 " stroke-dashoffset="0px">
	<path d="  M 89.3984 744.663   L 148.358 744.663   "/>
</g>
<g style="stroke:none;fill:#000000;text-rendering:optimizeGeometricPrecision;font-size:8px;font-family:Arial,Helvetica,sans-serif">
	<text transform="matrix(1 0 0 1 13.5212 766.964)">Program base</text>
</g>
<g style="stroke:none;fill:#000000;text-rendering:optimizeGeometricPrecision;font-size:8px;font-family:Arial,Helvetica,sans-serif">
	<text transform="matrix(1 0 0 1 35.3198 774.964)">address</text>
</g>
<g stroke="#000000" fill="none" stroke-width="0.4px" stroke-linejoin="miter" stroke-linecap="butt" stroke-miterlimit="3.86369">
	<path d="  M 89.3984 641.495   L 148.358 641.495   "/>
</g>
<g stroke="#000000" fill="none" stroke-width="0.2px" stroke-linejoin="miter" stroke-linecap="butt" stroke-miterlimit="3.86369">
	<path d="  M 166.087 637.653   L 151.837 641.153   "/>
</g>
<g fill="#000000" fill-rule="evenodd" stroke-width="0.2px" stroke-linejoin="miter" stroke-linecap="butt" stroke-miterlimit="3.86369">
	<path d="  M 152.06 641.098   L 152.392 642.432   L 148.724 641.929   L 151.727 639.763   Z   "/>
</g>
<g stroke="#000000" fill="none" stroke-width="0.4px" stroke-linejoin="miter" stroke-linecap="butt" stroke-miterlimit="3.86369">
	<path d="  M 89.3984 629.595   L 148.358 629.595   "/>
</g>
<g stroke="#000000" fill="none" stroke-width="0.2px" stroke-linejoin="miter" stroke-linecap="butt" stroke-miterlimit="3.86369">
	<path d="  M 166.212 711.903   L 152.837 714.403   "/>
</g>
<g fill="#000000" fill-rule="evenodd" stroke-width="0.2px" stroke-linejoin="miter" stroke-linecap="butt" stroke-miterlimit="3.86369">
	<path d="  M 153.062 714.359   L 153.325 715.709   L 149.688 715.015   L 152.8 713.01   Z   "/>
</g>
<g stroke="#000000" fill="none" stroke-width="0.4px" stroke-linejoin="miter" stroke-linecap="butt" stroke-miterlimit="3.86369">
	<path d="  M 89.3945 631.021   C 89.3945 631.922 89.2207 633.058 90.2139 633.212   C 91.3499 633.387 93.2651 633.539 93.3164 633.949   C 93.3574 634.446 92.761 634.433 92.2207 634.532   C 91.335 634.696 88.1555 635.167 87.3979 635.26   C 86.8669 635.324 86.1487 635.434 86.1487 635.812   C 86.1487 636.116 86.6184 636.3 86.9065 636.396   C 87.4343 636.572 88.2698 636.599 88.8726 636.929   C 89.5278 637.287 89.405 638.354 89.405 638.802   "/>
</g>
<g stroke="#000000" fill="none" stroke-width="0.4px" stroke-linejoin="miter" stroke-linecap="butt" stroke-miterlimit="3.86369">
	<path d="  M 89.3965 638.493   L 89.3965 640.843   "/>
</g>
<g stroke="#000000" fill="none" stroke-width="0.4px" stroke-linejoin="miter" stroke-linecap="butt" stroke-miterlimit="3.86369">
	<path d="  M 89.3716 629.443   L 89.3716 631.793   "/>
</g>
<g stroke="#000000" fill="none" stroke-width="0.4px" stroke-linejoin="miter" stroke-linecap="butt" stroke-miterlimit="3.86369">
	<path d="  M 148.169 630.995   C 148.169 631.896 147.995 633.033 148.988 633.187   C 150.124 633.362 152.039 633.514 152.091 633.924   C 152.131 634.421 151.535 634.408 150.995 634.508   C 150.109 634.671 146.93 635.143 146.172 635.235   C 145.641 635.299 144.923 635.409 144.923 635.788   C 144.923 636.092 145.393 636.275 145.68 636.371   C 146.208 636.547 147.044 636.574 147.646 636.904   C 148.302 637.262 148.179 638.33 148.179 638.777   "/>
</g>
<g stroke="#000000" fill="none" stroke-width="0.4px" stroke-linejoin="miter" stroke-linecap="butt" stroke-miterlimit="3.86369">
	<path d="  M 148.171 638.468   L 148.171 640.818   "/>
</g>
<g stroke="#000000" fill="none" stroke-width="0.4px" stroke-linejoin="miter" stroke-linecap="butt" stroke-miterlimit="3.86369">
	<path d="  M 148.146 629.418   L 148.146 631.768   "/>
</g>
<g style="stroke:none;fill:#000000;text-rendering:optimizeGeometricPrecision;font-size:8px;font-family:Arial,Helvetica,sans-serif">
	<text transform="matrix(1 0 0 1 167.843 640.07)">S</text>
</g>
<g style="stroke:none;fill:#000000;text-rendering:optimizeGeometricPrecision;font-size:8px;font-family:Arial,Helvetica,sans-serif">
	<text transform="matrix(1 0 0 1 172.835 640.07)">t</text>
</g>
<g style="stroke:none;fill:#000000;text-rendering:optimizeGeometricPrecision;font-size:8px;font-family:Arial,Helvetica,sans-serif">
	<text transform="matrix(1 0 0 1 174.963 640.07)">ack base</text>
</g>
<g style="stroke:none;fill:#000000;text-rendering:optimizeGeometricPrecision;font-size:8px;font-family:Arial,Helvetica,sans-serif">
	<text transform="matrix(1 0 0 1 8.99341 719.374)">End of program</text>
</g>
<g stroke="#000000" fill="none" stroke-width="0.4px" stroke-linejoin="miter" stroke-linecap="butt" stroke-miterlimit="3.86369">
	<path d="  M 89.365 784.438   L 148.325 784.438   "/>
</g>
<g stroke="#000000" fill="none" stroke-width="0.4px" stroke-linejoin="miter" stroke-linecap="butt" stroke-miterlimit="3.86369">
	<path d="  M 89.3613 783.013   C 89.3613 782.112 89.1873 780.975 90.1804 780.822   C 91.3164 780.646 93.2319 780.494 93.2832 780.084   C 93.324 779.588 92.7275 779.601 92.1875 779.501   C 91.3018 779.337 88.1223 778.866 87.3647 778.774   C 86.8337 778.709 86.1155 778.6 86.1155 778.221   C 86.1155 777.917 86.5852 777.733 86.873 777.637   C 87.4011 777.461 88.2366 777.434 88.8391 777.105   C 89.4944 776.747 89.3716 775.679 89.3716 775.231   "/>
</g>
<g stroke="#000000" fill="none" stroke-width="0.4px" stroke-linejoin="miter" stroke-linecap="butt" stroke-miterlimit="3.86369">
	<path d="  M 89.3633 775.541   L 89.3633 773.191   "/>
</g>
<g stroke="#000000" fill="none" stroke-width="0.4px" stroke-linejoin="miter" stroke-linecap="butt" stroke-miterlimit="3.86369">
	<path d="  M 89.3381 784.59   L 89.3381 782.24   "/>
</g>
<g stroke="#000000" fill="none" stroke-width="0.4px" stroke-linejoin="miter" stroke-linecap="butt" stroke-miterlimit="3.86369">
	<path d="  M 148.135 783.038   C 148.135 782.137 147.961 781 148.955 780.847   C 150.091 780.671 152.006 780.519 152.057 780.11   C 152.098 779.613 151.502 779.626 150.961 779.526   C 150.076 779.362 146.896 778.891 146.139 778.799   C 145.608 778.734 144.89 778.625 144.89 778.246   C 144.89 777.942 145.359 777.758 145.647 777.662   C 146.175 777.486 147.011 777.459 147.613 777.13   C 148.269 776.771 148.146 775.704 148.146 775.256   "/>
</g>
<g stroke="#000000" fill="none" stroke-width="0.4px" stroke-linejoin="miter" stroke-linecap="butt" stroke-miterlimit="3.86369">
	<path d="  M 148.137 775.566   L 148.137 773.216   "/>
</g>
<g stroke="#000000" fill="none" stroke-width="0.4px" stroke-linejoin="miter" stroke-linecap="butt" stroke-miterlimit="3.86369">
	<path d="  M 148.112 784.615   L 148.112 782.265   "/>
</g>
<g stroke="#000000" fill="none" stroke-width="0.4px" stroke-linejoin="miter" stroke-linecap="butt" stroke-miterlimit="3.86369" stroke-dasharray="1 1 " stroke-dashoffset="0px">
	<path d="  M 89.0874 671.09   L 148.087 671.09   "/>
</g>
<g stroke="#000000" fill="none" stroke-width="0.2px" stroke-linejoin="miter" stroke-linecap="butt" stroke-miterlimit="3.86369">
	<path d="  M 65.0874 717.903   L 83.8374 714.903   "/>
</g>
<g fill="#000000" fill-rule="evenodd" stroke-width="0.2px" stroke-linejoin="miter" stroke-linecap="butt" stroke-miterlimit="3.86369">
	<path d="  M 83.6108 714.939   L 83.3958 713.581   L 87.0061 714.401   L 83.8259 716.297   Z   "/>
</g>
<g style="stroke:none;fill:#000000;text-rendering:optimizeGeometricPrecision;font-size:8px;font-family:Arial,Helvetica,sans-serif">
	<text transform="matrix(1 0 0 1 167.993 678.874)">Heap limit</text>
</g>
<g stroke="#000000" fill="none" stroke-width="0.2px" stroke-linejoin="miter" stroke-linecap="butt" stroke-miterlimit="3.86369">
	<path d="  M 166.962 675.653   L 152.837 672.028   "/>
</g>
<g fill="#000000" fill-rule="evenodd" stroke-width="0.2px" stroke-linejoin="miter" stroke-linecap="butt" stroke-miterlimit="3.86369">
	<path d="  M 153.06 672.083   L 152.727 673.417   L 149.724 671.252   L 153.392 670.749   Z   "/>
</g>
<g style="stroke:none;fill:#000000;text-rendering:optimizeGeometricPrecision;font-size:8px;font-family:Arial,Helvetica,sans-serif">
	<text transform="matrix(1 0 0 1 167.559 666.206)">S</text>
</g>
<g style="stroke:none;fill:#000000;text-rendering:optimizeGeometricPrecision;font-size:8px;font-family:Arial,Helvetica,sans-serif">
	<text transform="matrix(1 0 0 1 172.551 666.206)">t</text>
</g>
<g style="stroke:none;fill:#000000;text-rendering:optimizeGeometricPrecision;font-size:8px;font-family:Arial,Helvetica,sans-serif">
	<text transform="matrix(1 0 0 1 174.679 666.206)">ack limit</text>
</g>
<g stroke="#000000" fill="none" stroke-width="0.2px" stroke-linejoin="miter" stroke-linecap="butt" stroke-miterlimit="3.86369">
	<path d="  M 166.712 664.278   L 152.587 669.653   "/>
</g>
<g fill="#000000" fill-rule="evenodd" stroke-width="0.2px" stroke-linejoin="miter" stroke-linecap="butt" stroke-miterlimit="3.86369">
	<path d="  M 152.801 669.571   L 153.294 670.854   L 149.592 670.803   L 152.308 668.287   Z   "/>
</g>
<g stroke="#000000" fill="none" stroke-width="0.2px" stroke-linejoin="miter" stroke-linecap="butt" stroke-miterlimit="3.86369">
	<path d="  M 63.5874 768.903   L 85.8374 772.153   "/>
</g>
<g fill="#000000" fill-rule="evenodd" stroke-width="0.2px" stroke-linejoin="miter" stroke-linecap="butt" stroke-miterlimit="3.86369">
	<path d="  M 85.6104 772.121   L 85.8018 770.76   L 89.0144 772.6   L 85.4189 773.483   Z   "/>
</g>
<g stroke="#000000" fill="none" stroke-width="0.2px" stroke-linejoin="miter" stroke-linecap="butt" stroke-miterlimit="3.86369">
	<path d="  M 65.8374 639.403   L 85.4624 641.028   "/>
</g>
<g fill="#000000" fill-rule="evenodd" stroke-width="0.2px" stroke-linejoin="miter" stroke-linecap="butt" stroke-miterlimit="3.86369">
	<path d="  M 85.2341 641.008   L 85.3538 639.638   L 88.6584 641.308   L 85.1143 642.378   Z   "/>
</g>
<g style="stroke:none;fill:#000000;text-rendering:optimizeGeometricPrecision;font-size:8px;font-family:'Lucida Sans Typewriter','Lucida Console','Courier New',Courier,monospace">
	<text transform="matrix(1 0 0 1 16.0933 628.57)">0xFFFFFFFF</text>
</g>
<g stroke="#000000" fill="none" stroke-width="0.2px" stroke-linejoin="miter" stroke-linecap="butt" stroke-miterlimit="3.86369">
	<path d="  M 65.8374 627.153   L 85.3374 629.153   "/>
</g>
<g fill="#000000" fill-rule="evenodd" stroke-width="0.2px" stroke-linejoin="miter" stroke-linecap="butt" stroke-miterlimit="3.86369">
	<path d="  M 85.1094 629.129   L 85.2532 627.761   L 88.5281 629.488   L 84.9656 630.497   Z   "/>
</g>
<g style="stroke:none;fill:#000000;text-rendering:optimizeGeometricPrecision;font-size:8px;font-family:'Lucida Sans Typewriter','Lucida Console','Courier New',Courier,monospace">
	<text transform="matrix(1 0 0 1 15.5933 788.57)">0x00000000</text>
</g>
<g stroke="#000000" fill="none" stroke-width="0.2px" stroke-linejoin="miter" stroke-linecap="butt" stroke-miterlimit="3.86369">
	<path d="  M 64.0874 786.153   L 85.0874 784.153   "/>
</g>
<g fill="#000000" fill-rule="evenodd" stroke-width="0.2px" stroke-linejoin="miter" stroke-linecap="butt" stroke-miterlimit="3.86369">
	<path d="  M 84.8591 784.173   L 84.7393 782.803   L 88.2834 783.873   L 84.9788 785.543   Z   "/>
</g>
</g>
</svg>
